<?xml version="1.0" encoding="utf-8"?>
<!-- Generator: Adobe Illustrator 22.0.0, SVG Export Plug-In . SVG Version: 6.00 Build 0)  -->
<svg version="1.1" id="图层_1" xmlns="http://www.w3.org/2000/svg" xmlns:xlink="http://www.w3.org/1999/xlink" x="0px" y="0px"
	 viewBox="0 0 140 140" style="enable-background:new 0 0 140 140;" xml:space="preserve">
<style type="text/css">
	.st0{opacity:0.52;fill:#000115;}
</style>
<path class="st0" d="M101.7,89.6c1.3,0.3,2.4-0.5,2.6-1.8l9.1-64.5L67,81.6L101.7,89.6z"/>
<path class="st0" d="M25.6,77.8h25.5c0,0.2,0,0.3,0.1,0.5L65.9,109c0,0,0,0,0,0c0,0.1,0.1,0.2,0.2,0.2c0,0,0,0,0,0
	c0.1,0.1,0.1,0.1,0.2,0.2c0,0,0,0,0,0c0.1,0,0.2,0.1,0.2,0.1c0,0,0,0,0,0c0,0,0,0,0,0c0.1,0,0.2,0,0.3,0c0,0,0,0,0,0
	c0.1,0,0.2,0,0.3,0c0,0,0.1,0,0.1,0c0.1,0,0.1,0,0.2-0.1c0,0,0,0,0,0c0,0,0,0,0.1,0c0.1,0,0.1-0.1,0.2-0.1c0,0,0,0,0.1-0.1
	c0,0,0.1-0.1,0.1-0.1c0,0,0,0,0,0l15.2-21.6l-17.4-4v19.7l-12.4-26c0-0.1-0.1-0.2-0.2-0.3l60.3-53.8L25,75.4
	C22.7,76.8,23,77.8,25.6,77.8z"/>
</svg>
