<?xml version="1.0" encoding="utf-8"?>
<!-- Generator: Adobe Illustrator 22.0.0, SVG Export Plug-In . SVG Version: 6.00 Build 0)  -->
<svg version="1.1" id="图层_1" xmlns="http://www.w3.org/2000/svg" xmlns:xlink="http://www.w3.org/1999/xlink" x="0px" y="0px"
	 viewBox="0 0 12 12.2" style="enable-background:new 0 0 12 12.2;" xml:space="preserve">
<g id="图层_2_1_">
</g>
<g id="图层_1_1_">
	<g>
		<path d="M8.7,6.4c0-0.2-0.1-0.3-0.3-0.4l0,0c0.2,0,0.4-0.2,0.4-0.4S8.6,5.3,8.4,5.3c-0.2,0-0.5,0-0.8,0c-0.2,0-0.5,0-0.7,0
			C6.8,5.3,6.8,5.2,6.8,5c0.1-0.3,0.3-0.9,0.3-1.1c0.1-0.5-0.6-0.6-0.8-0.2C6.2,4,5.7,5.1,5.1,5.5C5,5.5,4.9,5.6,4.9,5.7v2.1
			c0,0.1,0.5,0.5,1.2,0.5h1.6h0.4c0.2,0,0.4-0.2,0.4-0.4c0-0.2-0.1-0.3-0.3-0.4l0,0c0.2,0,0.4-0.2,0.4-0.4c0-0.2-0.1-0.3-0.3-0.4
			l0,0C8.5,6.8,8.7,6.6,8.7,6.4z"/>
		<path d="M4.3,5.4H3.5c-0.2,0-0.3,0.1-0.3,0.3v2.1c0,0.2,0.1,0.3,0.3,0.3h0.8c0.2,0,0.3-0.1,0.3-0.3V5.6C4.6,5.5,4.5,5.4,4.3,5.4z
			 M3.9,7.7c-0.1,0-0.2-0.1-0.2-0.2c0-0.1,0.1-0.2,0.2-0.2c0.1,0,0.2,0.1,0.2,0.2C4.2,7.6,4,7.7,3.9,7.7z"/>
	</g>
</g>
</svg>
