<?xml version="1.0" encoding="utf-8"?>
<!-- Generator: Adobe Illustrator 22.0.0, SVG Export Plug-In . SVG Version: 6.00 Build 0)  -->
<svg version="1.1" id="图层_1" xmlns="http://www.w3.org/2000/svg" xmlns:xlink="http://www.w3.org/1999/xlink" x="0px" y="0px"
	 viewBox="0 0 24 30" style="enable-background:new 0 0 24 30;" xml:space="preserve">
<title>more</title>
<desc>Created with Sketch.</desc>
<g>
	<path d="M12,22C6.5,22,2,17.5,2,12S6.5,2,12,2s10,4.5,10,10S17.5,22,12,22z M12,20c4.4,0,8-3.6,8-8s-3.6-8-8-8s-8,3.6-8,8
		S7.6,20,12,20z M7,11h2v2H7V11z M11,11h2v2h-2V11z M15,11h2v2h-2V11z"/>
</g>
</svg>
