<?xml version="1.0" encoding="utf-8"?>
<!-- Generator: Adobe Illustrator 22.0.0, SVG Export Plug-In . SVG Version: 6.00 Build 0)  -->
<svg version="1.1" id="图层_1" xmlns="http://www.w3.org/2000/svg" xmlns:xlink="http://www.w3.org/1999/xlink" x="0px" y="0px"
	 viewBox="0 0 24 23.8" style="enable-background:new 0 0 24 23.8;" xml:space="preserve">
<title>52 - Chat Conversation (communication, dialogue, discussion)</title>
<desc>Created with Sketch.</desc>
<g>
	<g transform="translate(-484.000000, -494.000000)">
		<g transform="translate(484.000000, 494.000000)">
			<path d="M16.1,12.2c-0.8,0-1.5-0.7-1.5-1.5s0.7-1.5,1.5-1.5s1.5,0.7,1.5,1.5S17,12.2,16.1,12.2 M11.7,12.2
				c-0.8,0-1.5-0.7-1.5-1.5s0.7-1.5,1.5-1.5s1.5,0.7,1.5,1.5S12.5,12.2,11.7,12.2 M7.2,12.2c-0.8,0-1.5-0.7-1.5-1.5s0.7-1.5,1.5-1.5
				s1.5,0.7,1.5,1.5S8,12.2,7.2,12.2 M19.1,14.7c1-1.2,1.5-2.6,1.5-4c0-4.1-4-7.4-8.9-7.4s-8.9,3.3-8.9,7.4s4,7.4,8.9,7.4
				c1.3,0,2-0.3,2.9-0.6c1.4,0.9,3.1,1.5,4.4,1.9c0.2,0.1,0.5,0.1,0.7,0.2c0.1,0,0.2,0,0.2,0c0.3,0,0.5-0.1,0.6-0.4
				c0.2-0.3,0.1-0.7-0.1-0.9C19.1,17,19.1,15.3,19.1,14.7"/>
		</g>
	</g>
</g>
</svg>
