<?xml version="1.0" encoding="utf-8"?>
<!-- Generator: Adobe Illustrator 22.0.0, SVG Export Plug-In . SVG Version: 6.00 Build 0)  -->
<svg version="1.1" id="图层_1" xmlns="http://www.w3.org/2000/svg" xmlns:xlink="http://www.w3.org/1999/xlink" x="0px" y="0px"
	 viewBox="0 0 32 32" style="enable-background:new 0 0 32 32;" xml:space="preserve">
<style type="text/css">
	.st0{fill:#8A8A8A;}
</style>
<title>icon/square-profile-solid</title>
<desc>Created with Sketch.</desc>
<g>
	<path class="st0" d="M0,0v32h3.9l0.8-3.3c0.4-1.7,1.6-3.1,3.2-3.9l2.3-1.1c0.8-0.4,1.4-1.1,1.6-1.9l0.5-1.8h0.2
		c-1.6-2-2.5-4.6-2.5-7.3v-0.8c0-3.6,2.7-6.5,6.1-6.5c3.3,0,6.1,2.9,6.1,6.5v0.8c0,2.7-0.9,5.3-2.5,7.3h0.2l0.5,1.8
		c0.2,0.8,0.8,1.6,1.6,1.9l2.3,1.1c1.6,0.8,2.7,2.2,3.2,3.9l0.8,3.3H32V0H0z"/>
</g>
</svg>
