<svg xmlns="http://www.w3.org/2000/svg" xmlns:xlink="http://www.w3.org/1999/xlink" version="1.1" x="0px" y="0px" viewBox="0 0 512 640" style="enable-background:new 0 0 512 512;" xml:space="preserve"><g><path d="M154.4,143l48.3,30.4v87.7c0,4.5,2.8,8.5,7,10c1.2,0.4,2.4,0.6,3.6,0.6c3.1,0,6.1-1.4,8.2-3.8l48.6-58.5l44.5,25.5   c1.6,1,3.4,1.4,5.2,1.4c3.5,0,6.9-1.7,9-4.9l138.8-215c2.6-3.9,2.2-9.1-0.7-12.6c-3-3.6-8-4.9-12.3-3.1L156,124.1   c-3.7,1.5-6.2,5-6.6,9C149,137,150.9,140.9,154.4,143z M224,174.5l74.3-32.3L224,231.7V174.5z"/><polygon points="0,165.9 0,497.2 175.8,305.1  "/><path d="M498.4,149.4h-91.2l-60.5,93.7c-5.8,9.1-15.9,14.7-26.9,14.7c-5.8,0-11.3-1.5-16.2-4.4l-28.6-16.4l-37.2,44.7   c-6.1,7.3-15.1,11.5-24.6,11.5c-3.7,0-7.4-0.6-10.8-1.9c-12.7-4.6-21.2-16.7-21.2-30.1v-76L143,161c-4.7-2.9-8.4-7-11-11.7H13.6   L256,341.4L498.4,149.4z"/><polygon points="336.2,305.1 512,497.2 512,165.8  "/><polygon points="256,368.6 192.5,318.3 15.4,512 496.6,512 319.5,318.3  "/></g><text x="0" y="527" fill="#000000" font-size="5px" font-weight="bold" font-family="'Helvetica Neue', Helvetica, Arial-Unicode, Arial, Sans-serif">Created by Graphic Tigers</text><text x="0" y="532" fill="#000000" font-size="5px" font-weight="bold" font-family="'Helvetica Neue', Helvetica, Arial-Unicode, Arial, Sans-serif">from the Noun Project</text></svg>